<svg width="1280" height="640" viewBox="0 0 1280 640" fill="none" xmlns="http://www.w3.org/2000/svg">
  <defs>
    <radialGradient id="glowA" cx="0" cy="0" r="1" gradientUnits="userSpaceOnUse" gradientTransform="translate(232 78) rotate(50) scale(620 420)">
      <stop stop-color="#77D5BD" stop-opacity="0.42"/>
      <stop offset="0.54" stop-color="#77D5BD" stop-opacity="0.08"/>
      <stop offset="1" stop-color="#77D5BD" stop-opacity="0"/>
    </radialGradient>
    <radialGradient id="glowB" cx="0" cy="0" r="1" gradientUnits="userSpaceOnUse" gradientTransform="translate(1074 144) rotate(139) scale(520 360)">
      <stop stop-color="#C99C5A" stop-opacity="0.54"/>
      <stop offset="0.58" stop-color="#C99C5A" stop-opacity="0.1"/>
      <stop offset="1" stop-color="#C99C5A" stop-opacity="0"/>
    </radialGradient>
    <linearGradient id="panel" x1="152" y1="104" x2="1132" y2="542" gradientUnits="userSpaceOnUse">
      <stop stop-color="#F4EEDE" stop-opacity="0.12"/>
      <stop offset="0.48" stop-color="#F4EEDE" stop-opacity="0.035"/>
      <stop offset="1" stop-color="#77D5BD" stop-opacity="0.09"/>
    </linearGradient>
    <linearGradient id="accent" x1="170" y1="512" x2="1112" y2="512" gradientUnits="userSpaceOnUse">
      <stop stop-color="#C99C5A"/>
      <stop offset="0.5" stop-color="#77D5BD"/>
      <stop offset="1" stop-color="#F4EEDE"/>
    </linearGradient>
    <filter id="softShadow" x="80" y="52" width="1120" height="560" filterUnits="userSpaceOnUse" color-interpolation-filters="sRGB">
      <feFlood flood-opacity="0" result="BackgroundImageFix"/>
      <feColorMatrix in="SourceAlpha" type="matrix" values="0 0 0 0 0 0 0 0 0 0 0 0 0 0 0 0 0 0 127 0" result="hardAlpha"/>
      <feOffset dy="30"/>
      <feGaussianBlur stdDeviation="36"/>
      <feComposite in2="hardAlpha" operator="out"/>
      <feColorMatrix type="matrix" values="0 0 0 0 0 0 0 0 0 0 0 0 0 0 0 0 0 0 0.45 0"/>
      <feBlend mode="normal" in2="BackgroundImageFix" result="effect1_dropShadow_1_1"/>
      <feBlend mode="normal" in="SourceGraphic" in2="effect1_dropShadow_1_1" result="shape"/>
    </filter>
  </defs>

  <rect width="1280" height="640" fill="#07080A"/>
  <rect width="1280" height="640" fill="url(#glowA)"/>
  <rect width="1280" height="640" fill="url(#glowB)"/>

  <g opacity="0.22">
    <path d="M0 80H1280M0 160H1280M0 240H1280M0 320H1280M0 400H1280M0 480H1280M0 560H1280" stroke="#F4EEDE" stroke-opacity="0.16"/>
    <path d="M80 0V640M160 0V640M240 0V640M320 0V640M400 0V640M480 0V640M560 0V640M640 0V640M720 0V640M800 0V640M880 0V640M960 0V640M1040 0V640M1120 0V640M1200 0V640" stroke="#F4EEDE" stroke-opacity="0.13"/>
  </g>

  <text x="1050" y="142" fill="#F4EEDE" fill-opacity="0.045" font-family="Georgia, 'Times New Roman', serif" font-size="118" font-weight="700" letter-spacing="8" text-anchor="middle">AGENTS</text>

  <g filter="url(#softShadow)">
    <rect x="112" y="78" width="1056" height="486" rx="42" fill="url(#panel)" stroke="#F4EEDE" stroke-opacity="0.14"/>
    <rect x="136" y="102" width="1008" height="438" rx="30" fill="#0B0D10" fill-opacity="0.62" stroke="#77D5BD" stroke-opacity="0.13"/>
  </g>

  <g transform="translate(170 144)">
    <rect width="86" height="86" rx="26" fill="#0E1516" stroke="#77D5BD" stroke-opacity="0.45"/>
    <path d="M26 62V24L43 40L60 24V62" stroke="#F4EEDE" stroke-width="7" stroke-linecap="round" stroke-linejoin="round"/>
    <circle cx="78" cy="15" r="7" fill="#C99C5A"/>
  </g>

  <text x="170" y="292" fill="#F4EEDE" font-family="Georgia, 'Times New Roman', serif" font-size="86" font-weight="700" letter-spacing="-2">Mindforge</text>
  <text x="174" y="354" fill="#C8C0AE" font-family="Inter, Segoe UI, Arial, sans-serif" font-size="30" font-weight="500">Multi-agent workspace for coding, research writing, and model routing.</text>

  <g font-family="Inter, Segoe UI, Arial, sans-serif" font-size="23" font-weight="600">
    <rect x="174" y="410" width="204" height="48" rx="24" fill="#77D5BD" fill-opacity="0.14" stroke="#77D5BD" stroke-opacity="0.38"/>
    <text x="276" y="441" fill="#C9F5EA" text-anchor="middle">Multi-Agent</text>
    <rect x="392" y="410" width="214" height="48" rx="24" fill="#C99C5A" fill-opacity="0.14" stroke="#C99C5A" stroke-opacity="0.42"/>
    <text x="499" y="441" fill="#F1D6AA" text-anchor="middle">Model Routing</text>
    <rect x="620" y="410" width="276" height="48" rx="24" fill="#F4EEDE" fill-opacity="0.08" stroke="#F4EEDE" stroke-opacity="0.22"/>
    <text x="758" y="441" fill="#E8E0D1" text-anchor="middle">OpenHands-ready</text>
  </g>

  <g opacity="0.92">
    <path d="M888 192C945 177 1010 201 1043 250C1081 307 1066 385 1011 423C957 459 884 446 846 395C802 336 817 212 888 192Z" fill="#77D5BD" fill-opacity="0.08" stroke="#77D5BD" stroke-opacity="0.26"/>
    <circle cx="898" cy="228" r="18" fill="#77D5BD"/>
    <circle cx="1018" cy="266" r="18" fill="#C99C5A"/>
    <circle cx="968" cy="392" r="18" fill="#F4EEDE"/>
    <circle cx="850" cy="352" r="18" fill="#77D5BD"/>
    <path d="M898 228L1018 266L968 392L850 352L898 228ZM898 228L968 392M1018 266L850 352" stroke="#F4EEDE" stroke-opacity="0.48" stroke-width="3"/>
    <rect x="862" y="468" width="202" height="34" rx="17" fill="#F4EEDE" fill-opacity="0.075"/>
    <rect x="891" y="481" width="144" height="8" rx="4" fill="#77D5BD" fill-opacity="0.6"/>
  </g>

  <rect x="170" y="508" width="942" height="4" rx="2" fill="url(#accent)"/>
  <text x="170" y="535" fill="#8D887C" font-family="Inter, Segoe UI, Arial, sans-serif" font-size="18" letter-spacing="1.4">PRESETS · ROLE AGENTS · APPROVAL HISTORY · CONTINUOUS CONTEXT</text>
</svg>
